<?xml version="1.0" encoding="UTF-8" standalone="no"?>
<!-- Created with Inkscape (http://www.inkscape.org/) -->

<svg
   version="1.1"
   id="svg2"
   width="666.66669"
   height="666.66669"
   viewBox="0 0 666.66669 666.66669"
   sodipodi:docname="9318706.eps"
   xmlns:inkscape="http://www.inkscape.org/namespaces/inkscape"
   xmlns:sodipodi="http://sodipodi.sourceforge.net/DTD/sodipodi-0.dtd"
   xmlns="http://www.w3.org/2000/svg"
   xmlns:svg="http://www.w3.org/2000/svg">
  <defs
     id="defs6">
    <clipPath
       clipPathUnits="userSpaceOnUse"
       id="clipPath58">
      <path
         d="m 987.121,1874.09 h 944.34 v 329.23 h -944.34 z"
         id="path56" />
    </clipPath>
  </defs>
  <sodipodi:namedview
     id="namedview4"
     pagecolor="#ffffff"
     bordercolor="#000000"
     borderopacity="0.25"
     inkscape:showpageshadow="2"
     inkscape:pageopacity="0.0"
     inkscape:pagecheckerboard="0"
     inkscape:deskcolor="#d1d1d1" />
  <g
     id="g8"
     inkscape:groupmode="layer"
     inkscape:label="ink_ext_XXXXXX"
     transform="matrix(1.3333333,0,0,-1.3333333,0,666.66667)">
    <g
       id="g10"
       transform="scale(0.1)">
      <path
         d="M 0,0 H 5000 V 5000 H 0 Z"
         style="fill:#ffffff;fill-opacity:1;fill-rule:nonzero;stroke:none"
         id="path12" />
      <path
         d="M 2599.8,2921.37 H 820.496 c -80.824,0 -146.344,65.52 -146.344,146.34 v 1161.02 c 0,80.82 65.52,146.34 146.344,146.34 H 2599.8 c 80.82,0 146.34,-65.52 146.34,-146.34 V 3067.71 c 0,-80.82 -65.52,-146.34 -146.34,-146.34"
         style="fill:#f8f8f8;fill-opacity:1;fill-rule:nonzero;stroke:none"
         id="path14" />
      <path
         d="m 2746.14,4176.05 v 92.43 c 0,58.87 -47.72,106.59 -106.58,106.59 H 780.738 c -58.867,0 -106.586,-47.72 -106.586,-106.59 v -92.43 H 2746.14"
         style="fill:#d8d7d5;fill-opacity:1;fill-rule:nonzero;stroke:none"
         id="path16" />
      <path
         d="m 800.598,4267.11 c 0,-15.43 -12.5,-27.93 -27.918,-27.93 -15.422,0 -27.922,12.5 -27.922,27.93 0,15.41 12.5,27.91 27.922,27.91 15.418,0 27.918,-12.5 27.918,-27.91"
         style="fill:#f8f8f8;fill-opacity:1;fill-rule:nonzero;stroke:none"
         id="path18" />
      <path
         d="m 902.473,4267.11 c 0,-15.43 -12.5,-27.93 -27.922,-27.93 -15.418,0 -27.922,12.5 -27.922,27.93 0,15.41 12.504,27.91 27.922,27.91 15.422,0 27.922,-12.5 27.922,-27.91"
         style="fill:#f8f8f8;fill-opacity:1;fill-rule:nonzero;stroke:none"
         id="path20" />
      <path
         d="m 1009.36,4267.11 c 0,-15.43 -12.505,-27.93 -27.926,-27.93 -15.418,0 -27.922,12.5 -27.922,27.93 0,15.41 12.504,27.91 27.922,27.91 15.421,0 27.926,-12.5 27.926,-27.91"
         style="fill:#f8f8f8;fill-opacity:1;fill-rule:nonzero;stroke:none"
         id="path22" />
      <path
         d="M 2333.62,4239.18 H 1214.86 c -15.42,0 -27.92,12.5 -27.92,27.93 0,15.41 12.5,27.91 27.92,27.91 h 1118.76 c 15.42,0 27.92,-12.5 27.92,-27.91 0,-15.43 -12.5,-27.93 -27.92,-27.93"
         style="fill:#f8f8f8;fill-opacity:1;fill-rule:nonzero;stroke:none"
         id="path24" />
      <path
         d="M 800.598,4369.14 H 2654.92 c 24.62,0 46.9,-9.98 63.04,-26.11 16.13,-16.14 26.11,-38.42 26.11,-63.04 V 3027.95 c 0,-1.14 0.93,-2.07 2.07,-2.07 1.15,0 2.08,0.93 2.08,2.07 v 1252.04 c -0.01,51.53 -41.77,93.3 -93.3,93.3 H 800.598 c -1.145,0 -2.071,-0.93 -2.071,-2.08 0,-1.14 0.926,-2.07 2.071,-2.07"
         style="fill:#232221;fill-opacity:1;fill-rule:nonzero;stroke:none"
         id="path26" />
      <path
         d="m 1138.9,3797.08 c -11.72,-4.47 -17.59,-17.59 -13.12,-29.31 l 214.73,-562.78 c 4.47,-11.72 17.59,-17.59 29.3,-13.12 l 409.87,156.38 c 11.71,4.47 17.59,17.59 13.12,29.31 l -179.36,470.08 -161.66,68.82 -312.88,-119.38"
         style="fill:#f8f8f8;fill-opacity:1;fill-rule:nonzero;stroke:none"
         id="path28" />
      <path
         d="m 1509.11,3807.83 104.33,39.81 -161.66,68.82 38.17,-100.05 c 2.92,-7.66 11.5,-11.5 19.16,-8.58"
         style="fill:#d8d7d5;fill-opacity:1;fill-rule:nonzero;stroke:none"
         id="path30" />
      <path
         d="m 1450.5,3915.97 38.17,-100.05 c 2.47,-6.47 8.62,-10.44 15.15,-10.44 1.92,0 3.88,0.34 5.78,1.07 l 104.33,39.8 0.79,1.77 -1.77,0.8 -104.33,-39.81 c -1.58,-0.61 -3.2,-0.89 -4.8,-0.89 -5.42,0 -10.54,3.3 -12.59,8.67 l -38.17,100.05 -1.77,0.8 -0.79,-1.77"
         style="fill:#232221;fill-opacity:1;fill-rule:nonzero;stroke:none"
         id="path32" />
      <path
         d="m 1471.07,3431.91 -18.22,47.75 49.21,18.78 18.22,-47.76 z m -25.39,70.91 c -5.47,14.34 -8.78,26.3 -9.93,35.88 -1.15,9.58 0.04,19.23 3.58,28.93 1.97,5.76 4.67,11.1 8.08,16.03 3.41,4.91 6.39,9.88 8.93,14.89 2.55,5 4.32,10.21 5.33,15.6 1,5.4 0.16,11.62 -2.53,18.67 -4.54,11.9 -11,18.98 -19.37,21.21 -8.37,2.24 -17.06,1.64 -26.04,-1.79 -12.89,-4.92 -20.39,-11.89 -22.51,-20.91 -2.13,-9.02 -1.48,-19.84 1.94,-32.46 l -47.02,-17.94 c -4.54,11.91 -6.73,23.46 -6.55,34.67 0.18,11.2 2.55,21.57 7.13,31.12 4.57,9.53 11.2,18.05 19.9,25.55 8.69,7.49 19.12,13.56 31.27,18.19 26.25,10.02 49,12.57 68.27,7.68 19.27,-4.9 33.5,-19.38 42.68,-43.44 2.96,-7.78 4.77,-14.88 5.42,-21.32 0.64,-6.43 0.28,-12.62 -1.06,-18.56 -1.36,-5.95 -3.55,-11.87 -6.59,-17.76 -3.04,-5.9 -6.65,-12.14 -10.81,-18.74 -3.77,-6.18 -6.62,-11.65 -8.56,-16.42 -1.93,-4.78 -3.01,-9.44 -3.23,-13.97 -0.22,-4.54 0.24,-9.03 1.38,-13.46 1.13,-4.45 2.73,-9.34 4.77,-14.68 l -44.48,-16.97"
         style="fill:#d8d7d5;fill-opacity:1;fill-rule:nonzero;stroke:none"
         id="path34" />
      <path
         d="m 1138.9,3797.08 -0.49,1.28 c -9.6,-3.66 -15.5,-12.8 -15.5,-22.5 0,-2.85 0.51,-5.75 1.59,-8.57 l 214.73,-562.79 c 3.66,-9.6 12.8,-15.5 22.49,-15.5 2.86,0 5.76,0.52 8.58,1.59 l 409.87,156.38 c 9.59,3.67 15.5,12.8 15.49,22.5 0,2.85 -0.51,5.76 -1.58,8.58 l -179.36,470.07 -0.74,0.78 -161.67,68.82 -1.02,0.02 -312.88,-119.38 0.49,-1.28 0.49,-1.28 312.36,119.18 160.62,-68.38 179.15,-469.53 c 0.95,-2.51 1.4,-5.07 1.4,-7.6 0,-8.59 -5.22,-16.69 -13.73,-19.94 l -409.87,-156.38 c -2.5,-0.95 -5.07,-1.41 -7.6,-1.41 -8.59,0.01 -16.69,5.23 -19.93,13.74 l -214.73,562.78 c -0.96,2.51 -1.41,5.08 -1.41,7.6 0,8.6 5.23,16.7 13.74,19.94 l -0.49,1.28"
         style="fill:#232221;fill-opacity:1;fill-rule:nonzero;stroke:none"
         id="path36" />
      <path
         d="m 1816.33,3950.33 c -11.56,4.85 -24.86,-0.6 -29.71,-12.17 l -232.73,-555.58 c -4.84,-11.56 0.6,-24.87 12.17,-29.71 l 404.62,-169.49 c 11.57,-4.85 24.87,0.6 29.71,12.16 l 194.4,464.06 -69.58,161.35 -308.88,129.38"
         style="fill:#f8f8f8;fill-opacity:1;fill-rule:nonzero;stroke:none"
         id="path38" />
      <path
         d="m 2091.79,3702.75 103,-43.15 -69.58,161.35 -41.38,-98.77 c -3.17,-7.56 0.4,-16.26 7.96,-19.43"
         style="fill:#d8d7d5;fill-opacity:1;fill-rule:nonzero;stroke:none"
         id="path40" />
      <path
         d="m 2123.94,3821.48 -41.37,-98.77 c -0.86,-2.05 -1.26,-4.17 -1.26,-6.26 -0.01,-6.34 3.74,-12.36 9.95,-14.96 l 103,-43.15 1.79,0.74 -0.74,1.79 -102.99,43.14 c -5.17,2.17 -8.27,7.17 -8.27,12.44 0,1.73 0.33,3.49 1.05,5.2 l 41.37,98.77 -0.73,1.79 -1.8,-0.73"
         style="fill:#232221;fill-opacity:1;fill-rule:nonzero;stroke:none"
         id="path42" />
      <path
         d="m 1804.94,3456.82 19.75,47.14 48.58,-20.35 -19.75,-47.14 z m 30.54,68.85 c 5.92,14.15 11.78,25.1 17.55,32.83 5.78,7.73 13.29,13.89 22.55,18.47 5.41,2.82 11.04,4.83 16.91,6.04 5.86,1.2 11.44,2.74 16.74,4.61 5.29,1.87 10.16,4.42 14.62,7.63 4.44,3.22 8.12,8.3 11.04,15.26 4.92,11.75 5.13,21.33 0.61,28.72 -4.52,7.39 -11.22,12.95 -20.09,16.66 -12.72,5.33 -22.96,5.46 -30.72,0.39 -7.77,-5.06 -14.76,-13.35 -20.98,-24.84 l -46.42,19.45 c 4.92,11.75 11.31,21.62 19.17,29.61 7.85,7.99 16.73,13.86 26.62,17.62 9.89,3.75 20.57,5.34 32.04,4.77 11.46,-0.57 23.19,-3.37 35.19,-8.4 25.91,-10.85 44.14,-24.7 54.72,-41.53 10.57,-16.84 10.89,-37.13 0.94,-60.89 -3.22,-7.68 -6.82,-14.06 -10.78,-19.17 -3.98,-5.1 -8.5,-9.34 -13.58,-12.72 -5.08,-3.37 -10.76,-6.14 -17.02,-8.31 -6.27,-2.17 -13.18,-4.2 -20.75,-6.11 -6.99,-1.87 -12.83,-3.87 -17.52,-5.98 -4.7,-2.13 -8.7,-4.76 -11.98,-7.89 -3.29,-3.14 -6.05,-6.71 -8.29,-10.7 -2.24,-4 -4.46,-8.64 -6.67,-13.91 l -43.9,18.39"
         style="fill:#d8d7d5;fill-opacity:1;fill-rule:nonzero;stroke:none"
         id="path44" />
      <path
         d="m 1816.33,3950.33 0.53,1.26 c -3.03,1.28 -6.19,1.88 -9.29,1.88 -9.41,0 -18.35,-5.55 -22.21,-14.78 l -232.73,-555.58 c -1.27,-3.03 -1.88,-6.19 -1.88,-9.29 0,-9.41 5.56,-18.35 14.78,-22.21 l 404.62,-169.5 c 3.04,-1.27 6.19,-1.87 9.29,-1.87 9.41,0 18.35,5.55 22.21,14.77 l 194.4,464.07 -0.01,1.07 -69.58,161.34 -0.72,0.72 -308.88,129.38 -0.53,-1.26 -0.53,-1.26 308.37,-129.17 69.13,-160.3 -194.17,-463.53 c -3.43,-8.17 -11.35,-13.09 -19.69,-13.09 -2.74,0 -5.53,0.53 -8.23,1.66 l -404.62,169.49 c -8.18,3.43 -13.1,11.35 -13.1,19.69 0,2.75 0.54,5.54 1.67,8.23 l 232.73,555.58 c 3.42,8.18 11.34,13.1 19.68,13.1 2.75,0 5.54,-0.53 8.23,-1.66 l 0.53,1.26"
         style="fill:#232221;fill-opacity:1;fill-rule:nonzero;stroke:none"
         id="path46" />
      <path
         d="m 894.676,1044.92 h 1129.22 V 2325.25 H 894.676 Z"
         style="fill:#f8f8f8;fill-opacity:1;fill-rule:nonzero;stroke:none"
         id="path48" />
      <path
         d="M 2045.9,2325.25 H 872.684 c -30.305,0 -54.875,24.57 -54.875,54.88 0,30.3 24.57,54.87 54.875,54.87 H 2045.9 c 30.3,0 54.87,-24.57 54.87,-54.87 0,-30.31 -24.57,-54.88 -54.87,-54.88"
         style="fill:#d8d7d5;fill-opacity:1;fill-rule:nonzero;stroke:none"
         id="path50" />
      <g
         id="g52">
        <g
           id="g54"
           clip-path="url(#clipPath58)">
          <path
             d="m 987.121,1874.09 h 944.34 v 329.23 h -944.34 z"
             style="fill:#e7e7e6;fill-opacity:1;fill-rule:nonzero;stroke:none"
             id="path60" />
        </g>
      </g>
      <path
         d="m 987.121,1095.87 h 944.34 v 329.23 h -944.34 z"
         style="fill:#e7e7e6;fill-opacity:1;fill-rule:nonzero;stroke:none"
         id="path62" />
      <path
         d="m 987.121,1484.98 h 944.34 v 329.23 h -944.34 z"
         style="fill:#e7e7e6;fill-opacity:1;fill-rule:nonzero;stroke:none"
         id="path64" />
      <path
         d="m 1520.75,2009.74 h -122.93 v 57.92 h 122.93 v -57.92"
         style="fill:#d8d7d5;fill-opacity:1;fill-rule:nonzero;stroke:none"
         id="path66" />
      <path
         d="m 1520.75,1620.64 h -122.93 v 57.91 h 122.93 v -57.91"
         style="fill:#d8d7d5;fill-opacity:1;fill-rule:nonzero;stroke:none"
         id="path68" />
      <path
         d="m 1520.75,1231.53 h -122.93 v 57.92 h 122.93 v -57.92"
         style="fill:#d8d7d5;fill-opacity:1;fill-rule:nonzero;stroke:none"
         id="path70" />
      <path
         d="M 4650.83,1047.64 H 404.203 c -2.023,0 -3.664,-1.64 -3.664,-3.66 0,-2.02 1.641,-3.66 3.664,-3.66 H 4650.83 c 2.02,0 3.66,1.64 3.66,3.66 0,2.02 -1.64,3.66 -3.66,3.66"
         style="fill:#232221;fill-opacity:1;fill-rule:nonzero;stroke:none"
         id="path72" />
      <path
         d="M 4724.2,605.801 C 4724.2,406.719 3728.39,245.34 2500,245.34 c -1228.39,0 -2224.203,161.379 -2224.203,360.461 0,199.078 995.813,360.461 2224.203,360.461 1228.39,0 2224.2,-161.383 2224.2,-360.461"
         style="fill:#f8f8f8;fill-opacity:1;fill-rule:nonzero;stroke:none"
         id="path74" />
      <path
         d="m 4193.13,655.621 -41.41,-5.359 -222.83,1395.418 124.25,16.09 139.99,-1406.149"
         style="fill:#d8d7d5;fill-opacity:1;fill-rule:nonzero;stroke:none"
         id="path76" />
      <path
         d="m 2846.83,702.25 41.41,-5.359 222.83,1395.419 -124.25,16.09 -139.99,-1406.15"
         style="fill:#d8d7d5;fill-opacity:1;fill-rule:nonzero;stroke:none"
         id="path78" />
      <path
         d="m 3630.37,668.172 -41.41,-5.363 -222.83,1395.421 124.25,16.09 139.99,-1406.148"
         style="fill:#d8d7d5;fill-opacity:1;fill-rule:nonzero;stroke:none"
         id="path80" />
      <path
         d="M 4076.72,1766.26 H 3025.38 l 37.72,328.92 h 1151.08 l -27.27,-229.17 c -5.77,-55.09 -55.1,-99.75 -110.19,-99.75"
         style="fill:#f8f8f8;fill-opacity:1;fill-rule:nonzero;stroke:none"
         id="path82" />
      <path
         d="m 4133.64,1866.94 h -647.73 c -28.49,0 -48.77,23.1 -45.29,51.6 l 150.48,1231.34 c 3.48,28.49 29.41,51.59 57.9,51.59 h 647.73 c 28.5,0 48.77,-23.1 45.29,-51.59 L 4191.54,1918.54 c -3.48,-28.5 -29.4,-51.6 -57.9,-51.6"
         style="fill:#f8f8f8;fill-opacity:1;fill-rule:nonzero;stroke:none"
         id="path84" />
      <path
         d="m 4030.08,1866.94 h -647.74 c -28.49,0 -48.77,23.1 -45.28,51.6 l 150.47,1231.34 c 3.49,28.49 29.41,51.59 57.9,51.59 h 647.73 c 28.5,0 48.77,-23.1 45.29,-51.59 L 4087.97,1918.54 c -3.48,-28.5 -29.4,-51.6 -57.89,-51.6"
         style="fill:#d8d7d5;fill-opacity:1;fill-rule:nonzero;stroke:none"
         id="path86" />
      <path
         d="m 3150.08,960.82 -69.89,168.06 309.52,128.71 192.19,-462.168 -694.19,-301.82 -34.95,84.027 297.32,383.191"
         style="fill:#f79994;fill-opacity:1;fill-rule:nonzero;stroke:none"
         id="path88" />
      <path
         d="m 2862.97,483.309 -16.57,39.839 c -16.94,40.743 -10.17,87.481 17.63,121.731 l 228.59,281.641 c 98.39,12.601 165.26,44.371 208.64,71.699 72.02,45.381 131.44,111.381 168.6,92.301 10.63,-5.46 16.08,-16.16 18.97,-23.88 l 101.63,-244.39 c 7.13,-17.141 -0.99,-36.82 -18.14,-43.949 L 2862.97,483.309"
         style="fill:#faba09;fill-opacity:1;fill-rule:nonzero;stroke:none"
         id="path90" />
      <path
         d="m 2853.31,506.531 740.4,307.899 c 1.87,0.781 2.75,2.929 1.98,4.8 -0.78,1.86 -2.93,2.75 -4.79,1.969 L 2850.49,513.301 c -1.87,-0.781 -2.75,-2.922 -1.97,-4.789 0.77,-1.871 2.92,-2.75 4.79,-1.981"
         style="fill:#5891d4;fill-opacity:1;fill-rule:nonzero;stroke:none"
         id="path92" />
      <path
         d="m 2944.96,738.648 64.27,-37.566 c 1.75,-1.023 4,-0.434 5.02,1.309 1.02,1.75 0.43,4 -1.32,5.019 l -64.27,37.57 c -1.75,1.02 -3.99,0.43 -5.01,-1.32 -1.02,-1.75 -0.43,-3.988 1.31,-5.012"
         style="fill:#5891d4;fill-opacity:1;fill-rule:nonzero;stroke:none"
         id="path94" />
      <path
         d="m 2968.21,768.441 64.27,-37.57 c 1.75,-1.019 4,-0.43 5.02,1.309 1.02,1.75 0.43,4 -1.32,5.019 l -64.27,37.563 c -1.75,1.027 -3.99,0.437 -5.01,-1.313 -1.02,-1.75 -0.43,-3.988 1.31,-5.008"
         style="fill:#5891d4;fill-opacity:1;fill-rule:nonzero;stroke:none"
         id="path96" />
      <path
         d="m 2993.35,797.539 64.27,-37.57 c 1.75,-1.02 3.99,-0.43 5.01,1.32 1.03,1.742 0.44,3.992 -1.31,5.012 l -64.27,37.57 c -1.75,1.02 -3.99,0.43 -5.02,-1.32 -1.02,-1.742 -0.43,-3.992 1.32,-5.012"
         style="fill:#5891d4;fill-opacity:1;fill-rule:nonzero;stroke:none"
         id="path98" />
      <path
         d="m 3029.97,845.531 c 58.5,1.739 152.09,11.688 257.04,56.008 101.25,42.75 171.89,100.101 213.76,139.781 1.47,1.39 1.53,3.71 0.14,5.18 -1.39,1.47 -3.71,1.53 -5.18,0.14 -41.44,-39.27 -111.36,-96.038 -211.57,-138.351 -103.87,-43.859 -196.51,-53.707 -254.41,-55.43 -2.02,-0.058 -3.61,-1.75 -3.55,-3.769 0.06,-2.02 1.75,-3.621 3.77,-3.559"
         style="fill:#5891d4;fill-opacity:1;fill-rule:nonzero;stroke:none"
         id="path100" />
      <path
         d="m 2136,824.699 99.04,192.881 254.02,3.06 -21.94,-518.718 -756.97,-2.461 1.16,91 424.69,234.238"
         style="fill:#f79994;fill-opacity:1;fill-rule:nonzero;stroke:none"
         id="path102" />
      <path
         d="m 1683.35,499.801 0.56,43.148 c 0.56,44.121 25.28,84.36 64.36,104.821 l 321.38,168.171 c 95.36,-27.359 169.34,-24.652 219.99,-16.711 84.11,13.168 164.79,50.27 191.37,18.032 7.6,-9.223 8.37,-21.203 7.96,-29.43 l -3.38,-264.66 c -0.24,-18.563 -15.48,-33.422 -34.05,-33.192 l -768.19,9.821"
         style="fill:#faba09;fill-opacity:1;fill-rule:nonzero;stroke:none"
         id="path104" />
      <path
         d="m 1683.67,524.961 801.81,-10.25 c 2.02,-0.031 3.69,1.59 3.71,3.609 0.03,2.032 -1.59,3.692 -3.62,3.711 l -801.8,10.25 c -2.03,0.028 -3.69,-1.59 -3.71,-3.609 -0.03,-2.031 1.59,-3.692 3.61,-3.711"
         style="fill:#5891d4;fill-opacity:1;fill-rule:nonzero;stroke:none"
         id="path106" />
      <path
         d="m 1859.71,701.852 44.15,-59.942 c 1.2,-1.629 3.5,-1.98 5.13,-0.769 1.63,1.199 1.97,3.488 0.77,5.121 l -44.15,59.929 c -1.2,1.629 -3.5,1.981 -5.13,0.778 -1.63,-1.199 -1.97,-3.489 -0.77,-5.117"
         style="fill:#5891d4;fill-opacity:1;fill-rule:nonzero;stroke:none"
         id="path108" />
      <path
         d="M 1892.85,720 1937,660.07 c 1.2,-1.629 3.5,-1.98 5.13,-0.781 1.63,1.203 1.98,3.5 0.78,5.133 l -44.16,59.93 c -1.2,1.628 -3.5,1.98 -5.13,0.777 -1.63,-1.199 -1.97,-3.5 -0.77,-5.129"
         style="fill:#5891d4;fill-opacity:1;fill-rule:nonzero;stroke:none"
         id="path110" />
      <path
         d="m 1927.45,736.781 44.16,-59.929 c 1.2,-1.633 3.49,-1.981 5.12,-0.782 1.63,1.2 1.98,3.5 0.78,5.121 l -44.16,59.938 c -1.2,1.633 -3.49,1.98 -5.12,0.781 -1.63,-1.199 -1.98,-3.5 -0.78,-5.129"
         style="fill:#5891d4;fill-opacity:1;fill-rule:nonzero;stroke:none"
         id="path112" />
      <path
         d="m 1980.08,766.371 c 54.4,-21.562 144.29,-49.461 258.21,-50.301 1.76,-0.011 3.5,-0.011 5.24,-0.011 107.45,0 193.1,24.242 246.39,43.793 1.9,0.699 2.88,2.8 2.18,4.699 -0.7,1.898 -2.8,2.879 -4.7,2.179 -52.75,-19.351 -137.53,-43.339 -243.87,-43.339 -1.72,0 -3.45,0 -5.18,0.007 -112.75,0.832 -201.73,28.454 -255.58,49.782 -1.88,0.75 -4.01,-0.168 -4.75,-2.059 -0.75,-1.879 0.17,-4.012 2.06,-4.75"
         style="fill:#5891d4;fill-opacity:1;fill-rule:nonzero;stroke:none"
         id="path114" />
      <path
         d="m 3371.34,2436.39 c 0,0 -708.54,-206.69 -745.23,-266.31 -36.68,-59.61 -22.93,-190.31 0,-275.16 22.93,-84.84 361.29,-928.658 361.29,-928.658 l 484.83,181.148 -332.49,869.04 623.7,316.44 -392.1,103.5"
         style="fill:#f25d26;fill-opacity:1;fill-rule:nonzero;stroke:none"
         id="path116" />
      <path
         d="m 2888.37,1199.26 c 0,0 195.2,263.44 225.01,286.36 29.8,22.93 183.43,122.68 183.43,122.68 l 39.86,-106.56 -414.21,-372.91 -34.09,70.43"
         style="fill:#e14b1e;fill-opacity:1;fill-rule:nonzero;stroke:none"
         id="path118" />
      <path
         d="m 3967.52,2253.28 c 0,0 36.68,-135.01 18.34,-180.19 -18.34,-45.17 -843.82,-563.39 -862.17,-595.49 -18.34,-32.1 -527.38,-614.03 -527.38,-614.03 l -536.56,105.84 c 0,0 527.38,696.21 655.79,801.69 128.41,105.48 710.83,612.49 710.83,612.49 l 541.15,-130.31"
         style="fill:#f25d26;fill-opacity:1;fill-rule:nonzero;stroke:none"
         id="path120" />
      <path
         d="m 3820.51,3221.84 273.24,151.69 c 12.81,7.11 14.7,24.77 3.68,34.43 l -146.87,128.78 -48.29,168.72 c 50.21,3.6 210.86,8.68 351.23,-101.08 37.25,-29.13 169.27,-132.37 154.3,-250.17 -9.62,-75.71 -91.11,-138.03 -254.1,-262.67 -47.18,-36.08 -87.94,-64.42 -117.19,-84.07 l -216,214.37"
         style="fill:#5891d4;fill-opacity:1;fill-rule:nonzero;stroke:none"
         id="path122" />
      <path
         d="m 3910.01,3678.41 c 0,0 -81.86,30.96 -95.69,33.46 -13.84,2.51 -154.45,-39.93 -154.45,-39.93 l 5.86,-30.78 c 0,0 105.12,-4.71 110.06,-7.64 4.93,-2.93 67.66,-67.81 80.83,-73.32 13.18,-5.5 90.47,-11.35 90.47,-11.35 l -37.08,129.56"
         style="fill:#f79994;fill-opacity:1;fill-rule:nonzero;stroke:none"
         id="path124" />
      <path
         d="m 3646.31,3236.23 -252.22,184.53 c -11.83,8.65 -11.5,26.41 0.63,34.62 l 161.77,109.49 68.91,161.39 c -49.37,9.82 -208.13,34.87 -361.07,-56.56 -40.59,-24.26 -184.44,-110.26 -184.26,-229 0.12,-76.33 73.22,-148.31 219.42,-292.27 42.32,-41.68 79.24,-74.87 105.81,-98.01 l 241.01,185.81"
         style="fill:#5891d4;fill-opacity:1;fill-rule:nonzero;stroke:none"
         id="path126" />
      <path
         d="m 3614.36,3700.39 c 0,0 85.07,20.52 99.11,21.29 14.05,0.76 148.28,-58.86 148.28,-58.86 l -9.65,-29.81 c 0,0 -104.89,8.41 -110.15,6.12 -5.26,-2.29 -75.58,-58.86 -89.34,-62.68 -13.76,-3.82 -91.18,0 -91.18,0 l 52.93,123.94"
         style="fill:#f79994;fill-opacity:1;fill-rule:nonzero;stroke:none"
         id="path128" />
      <path
         d="m 3646.31,3236.23 181.15,-13.66 c 97.04,-44.24 149.97,-99.32 178.27,-135.29 31.87,-40.51 111.3,-156.91 93.25,-712.36 -2.63,-80.84 -6.52,-146.35 -9.17,-186.49 l -914.14,247.96 c 10.58,36.39 113.14,385.86 220.12,595.86 28.15,55.25 66.96,121.17 142.17,165.09 42.39,24.76 82.63,34.52 108.35,38.89"
         style="fill:#5891d4;fill-opacity:1;fill-rule:nonzero;stroke:none"
         id="path130" />
      <path
         d="m 3728.57,3145.84 v 0 c 49.91,-4.69 94.16,31.97 98.85,81.88 l 18.27,194.46 -180.73,16.98 -18.27,-194.47 c -4.68,-49.9 31.97,-94.16 81.88,-98.85"
         style="fill:#f79994;fill-opacity:1;fill-rule:nonzero;stroke:none"
         id="path132" />
      <path
         d="m 3651.81,3299.13 123.19,49.88 c -2.11,-10.09 -13.11,-57.24 -58.07,-86.44 -28.71,-18.64 -57.33,-20.91 -70.47,-21.1 l 5.35,57.66"
         style="fill:#f35b5f;fill-opacity:1;fill-rule:nonzero;stroke:none"
         id="path134" />
      <path
         d="m 3855.51,3482.05 c 0.83,2.89 8.98,6.63 11.49,7.94 4.25,2.2 8.79,3.86 13.46,4.91 9.08,2.05 18.83,1.83 27.71,-1.06 17.65,-5.76 32.26,-22.34 33.59,-41.16 0.78,-10.93 -2.72,-21.85 -8.23,-31.32 -8.28,-14.25 -21.18,-25.68 -36.14,-32.59 -12.39,-5.73 -26.15,-8.36 -39.78,-7.95 -2.73,0.09 -30.45,3.23 -30.15,4.28 9.35,32.32 18.7,64.63 28.05,96.95"
         style="fill:#f79994;fill-opacity:1;fill-rule:nonzero;stroke:none"
         id="path136" />
      <path
         d="m 3880.12,3477.93 c -3.45,-14.32 -23.1,-89.72 -96.98,-137.59 -13.61,-8.82 -104.08,-67.45 -178.49,-28.15 -95.61,50.49 -70.07,212.7 -68.57,221.47 5.06,29.67 19.96,117.04 97.07,157.42 62.93,32.96 126.11,13.06 135.05,10.09 9.43,-3.13 69.39,-24.14 101.51,-87.68 29.16,-57.66 16.05,-112.12 10.41,-135.56"
         style="fill:#f79994;fill-opacity:1;fill-rule:nonzero;stroke:none"
         id="path138" />
      <path
         d="m 3592.46,3528.47 c -2.75,-12.6 -13.41,-20.97 -23.8,-18.7 -10.4,2.27 -16.61,14.32 -13.86,26.92 2.75,12.59 13.41,20.96 23.81,18.69 10.4,-2.27 16.6,-14.31 13.85,-26.91"
         style="fill:#232221;fill-opacity:1;fill-rule:nonzero;stroke:none"
         id="path140" />
      <path
         d="m 3705.96,3503.71 c -2.74,-12.6 -13.4,-20.97 -23.8,-18.7 -10.4,2.27 -16.6,14.32 -13.85,26.91 2.74,12.6 13.4,20.97 23.8,18.7 10.4,-2.27 16.6,-14.32 13.85,-26.91"
         style="fill:#232221;fill-opacity:1;fill-rule:nonzero;stroke:none"
         id="path142" />
      <path
         d="m 3622.66,3508.72 -19.74,-22.19 c -2.19,-2.46 -3.28,-5.56 -3.27,-8.6 -0.01,-3.93 1.8,-7.87 5.25,-10.42 l 15.27,-11.29 c 1.62,-1.21 3.92,-0.86 5.12,0.76 1.21,1.63 0.86,3.92 -0.76,5.13 l -15.28,11.29 c -1.51,1.12 -2.27,2.8 -2.28,4.53 0.01,1.33 0.46,2.64 1.43,3.73 l 19.74,22.18 c 1.35,1.52 1.21,3.83 -0.3,5.18 -1.51,1.34 -3.83,1.21 -5.17,-0.3"
         style="fill:#232221;fill-opacity:1;fill-rule:nonzero;stroke:none"
         id="path144" />
      <path
         d="m 3739.07,3440.23 c -3.09,-14.14 -17.04,-23.09 -31.18,-20.01 -14.13,3.08 -23.09,17.04 -20.01,31.17 3.09,14.14 17.04,23.1 31.18,20.01 14.13,-3.08 23.09,-17.04 20.01,-31.17"
         style="fill:#f35b5f;fill-opacity:1;fill-rule:nonzero;stroke:none"
         id="path146" />
      <path
         d="m 3865.4,3415.36 c 0.13,2.53 1.63,20.74 17.06,32.2 9.79,7.33 20.33,8.42 25.88,8.41 1.3,0 2.31,-0.06 2.99,-0.1 2.01,-0.15 3.77,1.37 3.92,3.39 0.14,2.01 -1.38,3.77 -3.39,3.92 -0.8,0.05 -2.01,0.12 -3.52,0.12 -6.45,0 -18.69,-1.22 -30.27,-9.88 -18.25,-13.74 -19.76,-34.4 -19.98,-37.61 -0.12,-2.02 1.41,-3.76 3.43,-3.88 2.03,-0.13 3.76,1.41 3.88,3.43"
         style="fill:#232221;fill-opacity:1;fill-rule:nonzero;stroke:none"
         id="path148" />
      <path
         d="m 3878.65,3443.14 0.64,0.02 c 2.38,0.01 9.75,-0.63 14.24,-6.58 2.84,-3.69 3.44,-7.75 3.44,-10.53 0,-1.52 -0.17,-2.57 -0.24,-2.94 -0.34,-2 0.99,-3.89 2.99,-4.24 1.99,-0.35 3.89,0.99 4.24,2.98 0.09,0.57 0.35,2.12 0.34,4.2 0.01,3.78 -0.81,9.6 -4.96,15 -6.85,8.78 -16.76,9.42 -20.05,9.44 l -1.12,-0.04 c -2.02,-0.13 -3.55,-1.87 -3.42,-3.89 0.13,-2.02 1.88,-3.55 3.9,-3.42"
         style="fill:#232221;fill-opacity:1;fill-rule:nonzero;stroke:none"
         id="path150" />
      <path
         d="m 3884.01,3495.55 c 0,0 -12.95,0.02 -23.5,-8.72 -10.54,-8.73 -15.46,-24.88 -15.46,-24.88 -15.14,0.49 -37.09,3.69 -55.21,18.51 -28.19,23.07 -17.66,50.2 -40.92,68.48 -21.86,17.17 -40.24,0.35 -120.77,4.58 -63.29,3.33 -81.25,15.26 -82.26,23.62 -0.33,2.73 0.91,7.71 3.71,17.58 1.08,3.79 2.35,9.41 4.7,14.68 4.62,10.34 10.29,20.2 16.84,29.43 13.12,18.47 29.79,34.42 48.84,46.7 12.37,7.97 25.75,14.39 39.76,18.91 44.5,14.36 104.01,9.01 152.77,-22.92 0,0 54.44,-35.65 74.26,-97.61 6.81,-21.29 7.14,-41.99 7.05,-49.16 -0.18,-14.17 -2.6,-23.24 -5.38,-30.12 -1.57,-3.89 -3.22,-6.98 -4.43,-9.08"
         style="fill:#232221;fill-opacity:1;fill-rule:nonzero;stroke:none"
         id="path152" />
      <path
         d="m 3546.62,3499.16 c -4.89,1.07 -9.73,0.61 -14.14,-0.92 -0.76,-14.05 -0.94,-31.16 0.51,-49.46 l 2.46,-0.8 c 14.13,-3.09 28.09,5.87 31.17,20 3.09,14.14 -5.87,28.1 -20,31.18"
         style="fill:#f35b5f;fill-opacity:1;fill-rule:nonzero;stroke:none"
         id="path154" />
      <path
         d="m 3637.71,3590.54 c -15.84,-30.29 -59.16,-38.92 -96.74,-19.27 -37.58,19.66 -55.21,60.16 -39.36,90.46 15.85,30.29 59.16,38.92 96.74,19.27 37.59,-19.66 55.21,-60.16 39.36,-90.46"
         style="fill:#232221;fill-opacity:1;fill-rule:nonzero;stroke:none"
         id="path156" />
      <path
         d="m 3605.82,3408.69 c 3.66,3.44 12.11,10.46 25.11,13.63 4.8,1.17 9.27,1.59 13.26,1.59 6.53,0 11.71,-1.13 14.72,-1.95 1.95,-0.53 3.97,0.63 4.5,2.58 0.53,1.95 -0.63,3.97 -2.58,4.5 -3.41,0.92 -9.26,2.2 -16.64,2.2 -4.5,0 -9.57,-0.47 -15,-1.8 -14.72,-3.6 -24.24,-11.51 -28.39,-15.41 -1.47,-1.39 -1.54,-3.71 -0.16,-5.18 1.39,-1.48 3.71,-1.55 5.18,-0.16"
         style="fill:#232221;fill-opacity:1;fill-rule:nonzero;stroke:none"
         id="path158" />
      <path
         d="m 2684.71,1737.19 744.06,643.63 c 1.53,1.32 1.69,3.64 0.37,5.17 -1.32,1.53 -3.64,1.7 -5.17,0.37 l -744.05,-643.63 c -1.53,-1.33 -1.7,-3.64 -0.38,-5.17 1.33,-1.53 3.64,-1.7 5.17,-0.37"
         style="fill:#232221;fill-opacity:1;fill-rule:nonzero;stroke:none"
         id="path160" />
      <path
         d="m 2895.36,1201.73 c 0,0.01 3.21,3.95 8.9,10.89 19.89,24.31 69.97,85.37 117.81,142.64 23.91,28.63 47.27,56.32 66.01,77.98 9.36,10.83 17.57,20.15 24.1,27.32 6.51,7.15 11.45,12.21 13.87,14.23 12.21,10.26 56.06,41.27 96.59,69.51 20.29,14.13 39.8,27.61 54.24,37.56 14.43,9.94 23.77,16.34 23.79,16.35 1.67,1.15 2.1,3.43 0.95,5.1 -1.14,1.67 -3.42,2.1 -5.09,0.95 0,0 -37.47,-25.66 -78.08,-53.95 -40.65,-28.33 -84.25,-59.13 -97.11,-69.9 -3.49,-2.94 -9.4,-9.17 -17.5,-18.15 -56.4,-62.59 -214.14,-255.86 -214.16,-255.89 -1.28,-1.57 -1.05,-3.88 0.52,-5.16 1.57,-1.28 3.88,-1.04 5.16,0.52"
         style="fill:#232221;fill-opacity:1;fill-rule:nonzero;stroke:none"
         id="path162" />
      <path
         d="m 3983.83,2169.25 c -0.04,-0.03 -846.51,-560.13 -890.37,-590.81 -3.22,-2.28 -7.82,-6.7 -14.2,-13.34 -47.43,-49.49 -187.51,-220.42 -315.97,-379.22 -128.41,-158.75 -245.03,-305.2 -245.03,-305.2 -1.26,-1.578 -1,-3.891 0.58,-5.149 1.59,-1.261 3.89,-1 5.15,0.578 0.03,0.032 8.29,10.411 22.89,28.7 51.09,63.98 179.41,224.381 299.72,372.101 60.16,73.86 118.32,144.56 163.81,198.44 22.75,26.94 42.33,49.68 57.39,66.49 7.53,8.4 13.93,15.32 19.01,20.53 5.05,5.18 8.9,8.71 10.85,10.06 21.72,15.19 244.38,162.95 461.46,306.79 217.11,143.87 428.75,283.91 428.75,283.91 1.69,1.12 2.15,3.39 1.04,5.08 -1.12,1.69 -3.39,2.15 -5.08,1.04"
         style="fill:#ffffff;fill-opacity:1;fill-rule:nonzero;stroke:none"
         id="path164" />
      <path
         d="m 3412.57,1125.34 -187.11,426.01 c -0.82,1.85 -2.98,2.69 -4.83,1.88 -1.86,-0.82 -2.7,-2.98 -1.88,-4.83 l 187.11,-426.01 c 0.81,-1.85 2.97,-2.7 4.83,-1.88 1.85,0.81 2.69,2.97 1.88,4.83"
         style="fill:#ffffff;fill-opacity:1;fill-rule:nonzero;stroke:none"
         id="path166" />
      <path
         d="m 3960.83,3295.54 190.35,103.43 c 1.77,0.96 2.43,3.19 1.47,4.97 -0.97,1.77 -3.19,2.43 -4.97,1.47 l -190.35,-103.42 c -1.78,-0.97 -2.44,-3.2 -1.47,-4.97 0.96,-1.78 3.19,-2.44 4.97,-1.48"
         style="fill:#232221;fill-opacity:1;fill-rule:nonzero;stroke:none"
         id="path168" />
      <path
         d="m 3492.31,3353.43 -152.44,111.47 c -1.63,1.2 -3.93,0.84 -5.12,-0.79 -1.2,-1.63 -0.84,-3.93 0.79,-5.12 l 152.45,-111.47 c 1.63,-1.2 3.92,-0.84 5.12,0.79 1.19,1.64 0.84,3.93 -0.8,5.12"
         style="fill:#232221;fill-opacity:1;fill-rule:nonzero;stroke:none"
         id="path170" />
      <path
         d="M 3410.57,3078.05 3321.2,2874.2 c -0.82,-1.86 0.03,-4.02 1.88,-4.83 1.86,-0.82 4.02,0.03 4.83,1.88 l 89.37,203.86 c 0.82,1.85 -0.03,4.01 -1.88,4.83 -1.85,0.81 -4.02,-0.03 -4.83,-1.89"
         style="fill:#232221;fill-opacity:1;fill-rule:nonzero;stroke:none"
         id="path172" />
      <path
         d="m 4026.45,3048.62 c 0,0 0.27,-0.47 0.78,-1.42 3.58,-6.68 18.72,-36.21 27.99,-73.43 5.28,-21.2 13.71,-72.15 20.75,-117.59 3.53,-22.73 6.73,-44.12 9.04,-59.83 2.31,-15.71 3.74,-25.7 3.74,-25.73 0.29,-2 2.14,-3.4 4.15,-3.11 2,0.28 3.39,2.14 3.11,4.14 -0.01,0.01 -5.73,40.14 -12.79,85.66 -7.08,45.55 -15.45,96.36 -20.89,118.23 -10.86,43.58 -29.4,76.5 -29.49,76.67 -0.99,1.77 -3.23,2.39 -4.99,1.4 -1.77,-0.99 -2.39,-3.23 -1.4,-4.99"
         style="fill:#232221;fill-opacity:1;fill-rule:nonzero;stroke:none"
         id="path174" />
      <path
         d="m 4095.72,2727.27 -5.91,-538.84 -726.62,197.09 c 74.74,-8.02 313.63,-23.9 533.24,130.81 98.91,69.67 161.65,151.23 199.29,210.94"
         style="fill:#3472b6;fill-opacity:1;fill-rule:nonzero;stroke:none"
         id="path176" />
      <path
         d="m 3255.46,3623.22 c -31.06,-25.62 -65.46,-49.12 -94.92,-77.54 -24.72,-23.88 -44.78,-56.07 -44.83,-90.95 0,-9.58 1.53,-19.33 4.91,-29.08 6.15,-17.77 15.62,-31.88 36.64,-58.37 19.87,-25.04 39.23,-43.46 53.47,-55.76 1.53,-1.33 3.84,-1.16 5.17,0.37 1.32,1.53 1.15,3.85 -0.38,5.17 -13.99,12.09 -33,30.18 -52.51,54.78 -20.98,26.45 -29.73,39.65 -35.47,56.21 -3.1,8.97 -4.5,17.88 -4.5,26.68 -0.05,31.93 18.73,62.69 42.59,85.68 28.85,27.85 63.08,51.27 94.5,77.15 1.56,1.29 1.78,3.6 0.49,5.16 -1.28,1.56 -3.59,1.79 -5.16,0.5"
         style="fill:#ffffff;fill-opacity:1;fill-rule:nonzero;stroke:none"
         id="path178" />
      <path
         d="m 3741.33,3110.08 c 0,-10.16 -8.24,-18.41 -18.4,-18.41 -10.17,0 -18.41,8.25 -18.41,18.41 0,10.17 8.24,18.41 18.41,18.41 10.16,0 18.4,-8.24 18.4,-18.41"
         style="fill:#ffffff;fill-opacity:1;fill-rule:nonzero;stroke:none"
         id="path180" />
      <path
         d="m 3736.78,3037.28 c 0,-10.17 -8.24,-18.41 -18.41,-18.41 -10.16,0 -18.41,8.24 -18.41,18.41 0,10.17 8.25,18.41 18.41,18.41 10.17,0 18.41,-8.24 18.41,-18.41"
         style="fill:#ffffff;fill-opacity:1;fill-rule:nonzero;stroke:none"
         id="path182" />
      <path
         d="m 3729.14,2955.93 c 0,-10.17 -8.24,-18.41 -18.41,-18.41 -10.17,0 -18.41,8.24 -18.41,18.41 0,10.17 8.24,18.41 18.41,18.41 10.17,0 18.41,-8.24 18.41,-18.41"
         style="fill:#ffffff;fill-opacity:1;fill-rule:nonzero;stroke:none"
         id="path184" />
      <path
         d="M 4073.63,2061.77 H 865.363 c -66,0 -119.504,53.51 -119.504,119.51 0,66 53.504,119.5 119.504,119.5 H 4073.63 c 66,0 119.5,-53.5 119.5,-119.5 0,-66 -53.5,-119.51 -119.5,-119.51"
         style="fill:#faba09;fill-opacity:1;fill-rule:nonzero;stroke:none"
         id="path186" />
      <path
         d="m 4126.84,504.141 -48.86,-6.332 -262.88,1646.271 146.58,18.98 165.16,-1658.919"
         style="fill:#faba09;fill-opacity:1;fill-rule:nonzero;stroke:none"
         id="path188" />
      <path
         d="M 850.258,504.141 899.117,497.809 1162,2144.08 1015.42,2163.06 850.258,504.141"
         style="fill:#faba09;fill-opacity:1;fill-rule:nonzero;stroke:none"
         id="path190" />
      <path
         d="m 4229.95,3110.53 -97.07,-794.32 c -0.25,-2.01 1.18,-3.84 3.19,-4.08 2.01,-0.25 3.84,1.18 4.09,3.19 l 97.07,794.32 c 0.24,2.01 -1.19,3.84 -3.2,4.08 -2.01,0.25 -3.83,-1.18 -4.08,-3.19"
         style="fill:#232221;fill-opacity:1;fill-rule:nonzero;stroke:none"
         id="path192" />
      <path
         d="M 4331.27,3092.12 4181.41,1855.15 c -0.24,-2.01 1.19,-3.83 3.2,-4.08 2.01,-0.24 3.84,1.19 4.08,3.2 l 149.86,1236.96 c 0.24,2.01 -1.19,3.84 -3.2,4.08 -2.01,0.25 -3.84,-1.18 -4.08,-3.19"
         style="fill:#232221;fill-opacity:1;fill-rule:nonzero;stroke:none"
         id="path194" />
      <path
         d="m 2437.32,2241.32 h 1504.55 c 2.02,0 3.66,1.64 3.66,3.67 0,2.02 -1.64,3.66 -3.66,3.66 H 2437.32 c -2.02,0 -3.66,-1.64 -3.66,-3.66 0,-2.03 1.64,-3.67 3.66,-3.67"
         style="fill:#ffffff;fill-opacity:1;fill-rule:nonzero;stroke:none"
         id="path196" />
      <path
         d="m 2376.18,2248.65 h -171.21 c -2.03,0 -3.67,-1.64 -3.67,-3.66 0,-2.03 1.64,-3.67 3.67,-3.67 h 171.21 c 2.02,0 3.66,1.64 3.66,3.67 0,2.02 -1.64,3.66 -3.66,3.66"
         style="fill:#ffffff;fill-opacity:1;fill-rule:nonzero;stroke:none"
         id="path198" />
      <path
         d="m 1001.69,2062.14 -99.17,-996.06 c -0.2,-2.01 1.269,-3.81 3.285,-4.01 2.011,-0.2 3.808,1.27 4.008,3.29 l 99.167,996.05 c 0.2,2.01 -1.27,3.81 -3.29,4.01 -2.01,0.2 -3.8,-1.27 -4,-3.28"
         style="fill:#232221;fill-opacity:1;fill-rule:nonzero;stroke:none"
         id="path200" />
      <path
         d="m 3824.62,2061.2 154.55,-967.88 c 0.32,-2 2.2,-3.36 4.2,-3.04 2,0.31 3.36,2.19 3.04,4.19 l -154.55,967.88 c -0.32,2 -2.2,3.36 -4.2,3.04 -2,-0.32 -3.36,-2.2 -3.04,-4.19"
         style="fill:#232221;fill-opacity:1;fill-rule:nonzero;stroke:none"
         id="path202" />
      <path
         d="m 3225.08,2492.63 h -871.46 c -31.05,0 -60.61,25.17 -66.03,56.22 l -100.35,574.78 c -5.42,31.04 15.36,56.21 46.41,56.21 h 871.46 c 31.04,0 60.61,-25.17 66.03,-56.21 l 100.34,-574.78 c 5.42,-31.05 -15.35,-56.22 -46.4,-56.22"
         style="fill:#444ca8;fill-opacity:1;fill-rule:nonzero;stroke:none"
         id="path204" />
      <path
         d="M 3169.56,2492.63 H 2298.1 c -31.04,0 -60.61,25.17 -66.03,56.22 l -100.34,574.78 c -5.43,31.04 15.35,56.21 46.4,56.21 h 871.46 c 31.05,0 60.61,-25.17 66.03,-56.21 l 100.35,-574.78 c 5.42,-31.05 -15.36,-56.22 -46.41,-56.22"
         style="fill:#4e52ad;fill-opacity:1;fill-rule:nonzero;stroke:none"
         id="path206" />
      <path
         d="m 2749.22,2300.78 h -288.99 l 112.53,495.83 c 3.29,14.48 17.69,26.21 32.16,26.21 h 236.56 c 14.48,0 23.55,-11.73 20.27,-26.21 l -112.53,-495.83"
         style="fill:#444ca8;fill-opacity:1;fill-rule:nonzero;stroke:none"
         id="path208" />
      <path
         d="m 2713.72,2300.78 h -288.99 l 112.53,495.83 c 3.29,14.48 17.69,26.21 32.16,26.21 h 236.56 c 14.48,0 23.55,-11.73 20.27,-26.21 l -112.53,-495.83"
         style="fill:#4e52ad;fill-opacity:1;fill-rule:nonzero;stroke:none"
         id="path210" />
      <path
         d="m 2428.3,2299.97 112.54,495.83 c 1.42,6.31 5.37,12.23 10.62,16.5 5.25,4.29 11.73,6.87 17.96,6.86 h 236.56 c 2.03,0 3.67,1.64 3.67,3.66 0,2.03 -1.64,3.67 -3.67,3.67 h -236.56 c -8.24,-0.01 -16.2,-3.3 -22.59,-8.5 -6.39,-5.22 -11.28,-12.41 -13.14,-20.57 L 2421.16,2301.6 c -0.45,-1.98 0.78,-3.94 2.76,-4.39 1.97,-0.45 3.94,0.79 4.38,2.76"
         style="fill:#232221;fill-opacity:1;fill-rule:nonzero;stroke:none"
         id="path212" />
      <path
         d="m 3602.57,2300.78 h -821.81 v 27.73 c 0,9.59 7.78,17.37 17.37,17.37 h 787.07 c 9.6,0 17.37,-7.78 17.37,-17.37 v -27.73"
         style="fill:#4e52ad;fill-opacity:1;fill-rule:nonzero;stroke:none"
         id="path214" />
      <path
         d="m 3826.46,3809.34 -26.93,14.12 104.06,240.56 68.54,-35.93 -145.67,-218.75"
         style="fill:#f8a2d5;fill-opacity:1;fill-rule:nonzero;stroke:none"
         id="path216" />
      <path
         d="m 3875.96,3775.35 -14.81,26.55 218.73,144.42 37.7,-67.58 -241.62,-103.39"
         style="fill:#f8a2d5;fill-opacity:1;fill-rule:nonzero;stroke:none"
         id="path218" />
      <path
         d="m 3763.35,3846.7 -29.51,-7.34 -82.1,248.92 75.1,18.68 36.51,-260.26"
         style="fill:#f8a2d5;fill-opacity:1;fill-rule:nonzero;stroke:none"
         id="path220" />
      <path
         d="m 1819.42,2428.61 c 4.39,30.37 14.39,75.15 39.46,123.85 13.85,26.92 36.59,71.09 78.8,103.92 81.21,63.15 185.56,46.31 211.93,41.27 -29.53,-6.36 -91.52,-24.15 -145.84,-77.62 -14.69,-14.45 -44.02,-43.9 -62.26,-90.53 -17.02,-43.5 -25.18,-103.96 -25.23,-103.95 v 0 l -96.86,3.06"
         style="fill:#90d34d;fill-opacity:1;fill-rule:nonzero;stroke:none"
         id="path222" />
      <path
         d="m 1908.45,2469 c 5.84,30.12 11.13,75.7 3.48,129.94 -4.23,29.98 -11.17,79.16 -40.24,124.06 -55.91,86.35 -159.99,104.77 -186.55,108.69 25.79,-15.73 78.47,-52.92 112.19,-121.28 9.12,-18.49 27.12,-55.93 29.01,-105.97 1.77,-46.68 -10.42,-106.46 -10.37,-106.47 v 0 l 92.48,-28.97"
         style="fill:#90d34d;fill-opacity:1;fill-rule:nonzero;stroke:none"
         id="path224" />
      <path
         d="m 1872.36,2435.42 c -0.65,25.8 -4.55,64.2 -20.65,107.37 -8.9,23.86 -23.5,63.01 -55.5,94.63 -61.56,60.81 -150.39,57.11 -172.92,55.52 24.04,-8.25 74.04,-29.26 114.11,-79.32 10.84,-13.53 32.4,-41.04 43.01,-81.8 9.9,-38.03 10.7,-89.34 10.74,-89.34 v 0.01 l 81.21,-7.07"
         style="fill:#90d34d;fill-opacity:1;fill-rule:nonzero;stroke:none"
         id="path226" />
      <path
         d="m 1893.22,2425.55 c 0.4,15.97 2.82,39.73 12.78,66.45 5.51,14.77 14.55,38.99 34.35,58.56 38.09,37.64 93.07,35.35 107.01,34.37 -14.87,-5.11 -45.82,-18.12 -70.62,-49.09 -6.7,-8.38 -20.05,-25.4 -26.61,-50.63 -6.13,-23.53 -6.63,-55.29 -6.65,-55.29 v 0 l -50.26,-4.37"
         style="fill:#90d34d;fill-opacity:1;fill-rule:nonzero;stroke:none"
         id="path228" />
      <path
         d="m 1623.02,2691.6 c 97.71,-19.75 138.43,-58.4 157.49,-91.16 15.53,-26.72 24.96,-64.06 30.45,-94.67 2.75,-15.32 4.52,-28.95 5.61,-38.75 1.08,-9.8 1.48,-15.74 1.48,-15.75 l 1.46,-1.28 1.27,1.46 c -0.03,0.09 -6.31,95.91 -37.9,150.36 -19.44,33.49 -61.1,72.67 -159.31,92.48 l -1.62,-1.07 1.07,-1.62"
         style="fill:#232221;fill-opacity:1;fill-rule:nonzero;stroke:none"
         id="path230" />
      <path
         d="m 1687.75,2829.94 c 34.43,-14.2 105.68,-49.86 148.38,-126.26 27.64,-49.43 34,-99.18 38.05,-130.97 2.62,-20.54 3.62,-39.7 3.62,-57.07 0,-22.28 -1.64,-41.63 -3.62,-57.23 l 1.19,-1.53 1.53,1.18 c 1.99,15.7 3.64,35.17 3.64,57.58 0,17.48 -1.01,36.75 -3.64,57.42 -4.06,31.81 -10.44,82 -38.38,131.96 -43.19,77.23 -115.04,113.14 -149.72,127.45 l -1.79,-0.74 0.74,-1.79"
         style="fill:#232221;fill-opacity:1;fill-rule:nonzero;stroke:none"
         id="path232" />
      <path
         d="m 2149.84,2699 c -2.96,0.51 -14.79,2.34 -31.97,2.34 -38.1,0 -102.62,-9.02 -154.64,-61.76 -52.9,-53.64 -60.15,-119.31 -60.15,-151.82 0,-9.48 0.62,-16.16 0.91,-18.91 l 1.5,-1.22 1.22,1.51 c -0.28,2.69 -0.89,9.25 -0.89,18.62 0,32.14 7.19,97.01 59.36,149.9 51.29,52.01 114.98,60.94 152.69,60.94 16.99,0 28.67,-1.82 31.51,-2.3 l 1.58,1.12 -1.12,1.58"
         style="fill:#232221;fill-opacity:1;fill-rule:nonzero;stroke:none"
         id="path234" />
      <path
         d="m 2047.33,2586.3 c -7.01,-0.17 -62.27,-2.32 -97.22,-49.28 -20.43,-27.49 -23.79,-56.8 -23.79,-73.73 0,-5.47 0.35,-9.66 0.6,-12.07 l 1.5,-1.23 1.22,1.51 c -0.24,2.35 -0.58,6.43 -0.58,11.79 0,16.58 3.3,45.26 23.25,72.09 34.03,45.84 88.34,48.04 95.08,48.18 l 1.34,1.4 -1.4,1.34"
         style="fill:#232221;fill-opacity:1;fill-rule:nonzero;stroke:none"
         id="path236" />
      <path
         d="m 1892.76,2291.92 h -44.72 c -41.29,0 -74.77,33.48 -74.77,74.77 v 113.26 h 194.26 v -113.26 c 0,-41.29 -33.48,-74.77 -74.77,-74.77"
         style="fill:#f8a2d5;fill-opacity:1;fill-rule:nonzero;stroke:none"
         id="path238" />
      <path
         d="m 1942.4,2435.42 v -55.03 c 0,-15.47 -6.25,-29.43 -16.38,-39.57 -10.14,-10.13 -24.11,-16.39 -39.57,-16.39 h -16.05 c -2.02,0 -3.66,-1.64 -3.66,-3.66 0,-2.03 1.64,-3.67 3.66,-3.67 h 16.05 c 34.95,0 63.28,28.33 63.28,63.29 v 55.03 c 0,2.02 -1.64,3.66 -3.66,3.66 -2.03,0 -3.67,-1.64 -3.67,-3.66"
         style="fill:#ffffff;fill-opacity:1;fill-rule:nonzero;stroke:none"
         id="path240" />
      <path
         d="M 686.445,2920.43 661.422,3038.41 783,3064.2 808.023,2946.22 Z m -33.269,174.58 c -7.512,35.42 -10.86,64.52 -10.039,87.28 0.82,22.76 7.117,44.8 18.914,66.12 6.715,12.72 14.941,24.19 24.703,34.42 9.742,10.21 18.5,20.7 26.266,31.45 7.75,10.73 13.785,22.22 18.105,34.43 4.309,12.21 4.629,27.01 0.934,44.43 -6.239,29.41 -18.707,48.26 -37.407,56.53 -18.691,8.27 -39.156,10.05 -61.359,5.34 -31.836,-6.75 -51.867,-20.27 -60.113,-40.51 -8.258,-20.27 -10.7,-45.73 -7.328,-76.38 l -116.176,-24.64 c -6.238,29.41 -7.11,57.15 -2.594,83.21 4.508,26.04 13.84,49.36 27.988,69.94 14.141,20.55 32.715,37.99 55.731,52.28 22.992,14.29 49.512,24.62 79.539,30.99 64.844,13.75 118.824,11.4 161.961,-7.06 43.121,-18.47 70.996,-57.4 83.601,-116.84 4.078,-19.23 5.684,-36.45 4.844,-51.68 -0.851,-15.24 -3.941,-29.54 -9.25,-42.9 -5.328,-13.37 -12.613,-26.37 -21.848,-38.99 -9.25,-12.63 -19.925,-25.87 -32.039,-39.73 -11.046,-13.02 -19.699,-24.74 -25.957,-35.15 -6.261,-10.43 -10.48,-20.9 -12.636,-31.39 -2.168,-10.5 -2.735,-21.14 -1.707,-31.89 1.023,-10.77 2.949,-22.75 5.746,-35.95 l -109.879,-23.31"
         style="fill:#f8a2d5;fill-opacity:1;fill-rule:nonzero;stroke:none"
         id="path242" />
    </g>
  </g>
</svg>
